<mxfile host="app.diagrams.net" agent="Mozilla/5.0 (Windows NT 10.0; Win64; x64; rv:126.0) Gecko/20100101 Firefox/126.0" version="24.7.15">
  <diagram name="Page-1" id="UnlS_7GYpRyITY3XfnsM">
    <mxGraphModel dx="1242" dy="713" grid="1" gridSize="10" guides="1" tooltips="1" connect="1" arrows="1" fold="1" page="1" pageScale="1" pageWidth="850" pageHeight="1100" math="0" shadow="0">
      <root>
        <mxCell id="0" />
        <mxCell id="1" parent="0" />
        <mxCell id="bmDTBJ9lqw3hhsNubRQz-24" style="edgeStyle=orthogonalEdgeStyle;rounded=0;orthogonalLoop=1;jettySize=auto;html=1;entryX=0;entryY=0.5;entryDx=0;entryDy=0;endArrow=ERoneToMany;endFill=0;strokeWidth=2;exitX=0.5;exitY=1;exitDx=0;exitDy=0;" parent="1" source="bmDTBJ9lqw3hhsNubRQz-18" target="bmDTBJ9lqw3hhsNubRQz-22" edge="1">
          <mxGeometry relative="1" as="geometry">
            <mxPoint x="310" y="450" as="sourcePoint" />
          </mxGeometry>
        </mxCell>
        <mxCell id="0_7YcfUC5gM77J7ln_g4-5" style="edgeStyle=orthogonalEdgeStyle;rounded=0;orthogonalLoop=1;jettySize=auto;html=1;exitX=0.5;exitY=0;exitDx=0;exitDy=0;entryX=0.5;entryY=1;entryDx=0;entryDy=0;strokeWidth=2;endArrow=ERoneToMany;endFill=0;" parent="1" source="bmDTBJ9lqw3hhsNubRQz-14" target="0_7YcfUC5gM77J7ln_g4-2" edge="1">
          <mxGeometry relative="1" as="geometry" />
        </mxCell>
        <mxCell id="bmDTBJ9lqw3hhsNubRQz-14" value="User" style="swimlane;childLayout=stackLayout;horizontal=1;startSize=50;horizontalStack=0;rounded=1;fontSize=14;fontStyle=0;strokeWidth=2;resizeParent=0;resizeLast=1;shadow=0;dashed=0;align=center;arcSize=4;whiteSpace=wrap;html=1;" parent="1" vertex="1">
          <mxGeometry x="340" y="290" width="160" height="150" as="geometry" />
        </mxCell>
        <mxCell id="bmDTBJ9lqw3hhsNubRQz-15" value="+ userId&lt;br&gt;+ email&lt;br&gt;&lt;div&gt;+ password&lt;/div&gt;&lt;div&gt;+ username&lt;/div&gt;&lt;div&gt;+ enabled&lt;/div&gt;&lt;div&gt;+ accountLocked&lt;br&gt;&lt;/div&gt;" style="align=left;strokeColor=none;fillColor=none;spacingLeft=4;fontSize=12;verticalAlign=top;resizable=0;rotatable=0;part=1;html=1;" parent="bmDTBJ9lqw3hhsNubRQz-14" vertex="1">
          <mxGeometry y="50" width="160" height="100" as="geometry" />
        </mxCell>
        <mxCell id="0_7YcfUC5gM77J7ln_g4-10" style="edgeStyle=orthogonalEdgeStyle;rounded=0;orthogonalLoop=1;jettySize=auto;html=1;entryX=0.5;entryY=1;entryDx=0;entryDy=0;strokeWidth=2;endArrow=ERoneToMany;endFill=0;" parent="1" source="bmDTBJ9lqw3hhsNubRQz-17" target="0_7YcfUC5gM77J7ln_g4-7" edge="1">
          <mxGeometry relative="1" as="geometry" />
        </mxCell>
        <mxCell id="bmDTBJ9lqw3hhsNubRQz-17" value="ConfigFile" style="swimlane;childLayout=stackLayout;horizontal=1;startSize=50;horizontalStack=0;rounded=1;fontSize=14;fontStyle=0;strokeWidth=2;resizeParent=0;resizeLast=1;shadow=0;dashed=0;align=center;arcSize=4;whiteSpace=wrap;html=1;" parent="1" vertex="1">
          <mxGeometry x="130" y="370" width="160" height="150" as="geometry" />
        </mxCell>
        <mxCell id="bmDTBJ9lqw3hhsNubRQz-18" value="+ configId&lt;br&gt;+ userId&lt;br&gt;&lt;div&gt;+ fileName&lt;/div&gt;&lt;div&gt;+ uploadDate&lt;/div&gt;&lt;div&gt;+ favoriteCount&lt;/div&gt;&lt;div&gt;+ downloadCount&lt;br&gt;&lt;/div&gt;" style="align=left;strokeColor=none;fillColor=none;spacingLeft=4;fontSize=12;verticalAlign=top;resizable=0;rotatable=0;part=1;html=1;" parent="bmDTBJ9lqw3hhsNubRQz-17" vertex="1">
          <mxGeometry y="50" width="160" height="100" as="geometry" />
        </mxCell>
        <mxCell id="bmDTBJ9lqw3hhsNubRQz-19" style="edgeStyle=orthogonalEdgeStyle;rounded=0;orthogonalLoop=1;jettySize=auto;html=1;entryX=1;entryY=0.25;entryDx=0;entryDy=0;endArrow=ERoneToMany;endFill=0;strokeWidth=2;" parent="1" source="bmDTBJ9lqw3hhsNubRQz-15" target="0_7YcfUC5gM77J7ln_g4-7" edge="1">
          <mxGeometry relative="1" as="geometry" />
        </mxCell>
        <mxCell id="bmDTBJ9lqw3hhsNubRQz-22" value="Comment" style="swimlane;childLayout=stackLayout;horizontal=1;startSize=50;horizontalStack=0;rounded=1;fontSize=14;fontStyle=0;strokeWidth=2;resizeParent=0;resizeLast=1;shadow=0;dashed=0;align=center;arcSize=4;whiteSpace=wrap;html=1;" parent="1" vertex="1">
          <mxGeometry x="345" y="470" width="160" height="140" as="geometry" />
        </mxCell>
        <mxCell id="bmDTBJ9lqw3hhsNubRQz-23" value="+ commentId&lt;br&gt;+ configId&lt;br&gt;&lt;div&gt;+ userId&lt;/div&gt;&lt;div&gt;+ commentText&lt;/div&gt;&lt;div&gt;+ commentDate&lt;/div&gt;" style="align=left;strokeColor=none;fillColor=none;spacingLeft=4;fontSize=12;verticalAlign=top;resizable=0;rotatable=0;part=1;html=1;" parent="bmDTBJ9lqw3hhsNubRQz-22" vertex="1">
          <mxGeometry y="50" width="160" height="90" as="geometry" />
        </mxCell>
        <mxCell id="bmDTBJ9lqw3hhsNubRQz-28" value="User_Role" style="swimlane;childLayout=stackLayout;horizontal=1;startSize=50;horizontalStack=0;rounded=1;fontSize=14;fontStyle=0;strokeWidth=2;resizeParent=0;resizeLast=1;shadow=0;dashed=0;align=center;arcSize=4;whiteSpace=wrap;html=1;" parent="1" vertex="1">
          <mxGeometry x="600" y="290" width="160" height="100" as="geometry" />
        </mxCell>
        <mxCell id="bmDTBJ9lqw3hhsNubRQz-29" value="+ userId&lt;div&gt;+ roleId&lt;/div&gt;" style="align=left;strokeColor=none;fillColor=none;spacingLeft=4;fontSize=12;verticalAlign=top;resizable=0;rotatable=0;part=1;html=1;" parent="bmDTBJ9lqw3hhsNubRQz-28" vertex="1">
          <mxGeometry y="50" width="160" height="50" as="geometry" />
        </mxCell>
        <mxCell id="bmDTBJ9lqw3hhsNubRQz-35" style="edgeStyle=orthogonalEdgeStyle;rounded=0;orthogonalLoop=1;jettySize=auto;html=1;entryX=0.5;entryY=1;entryDx=0;entryDy=0;strokeWidth=2;endArrow=ERoneToMany;endFill=0;" parent="1" source="bmDTBJ9lqw3hhsNubRQz-31" target="bmDTBJ9lqw3hhsNubRQz-29" edge="1">
          <mxGeometry relative="1" as="geometry" />
        </mxCell>
        <mxCell id="bmDTBJ9lqw3hhsNubRQz-31" value="Role" style="swimlane;childLayout=stackLayout;horizontal=1;startSize=50;horizontalStack=0;rounded=1;fontSize=14;fontStyle=0;strokeWidth=2;resizeParent=0;resizeLast=1;shadow=0;dashed=0;align=center;arcSize=4;whiteSpace=wrap;html=1;" parent="1" vertex="1">
          <mxGeometry x="600" y="440" width="160" height="90" as="geometry" />
        </mxCell>
        <mxCell id="bmDTBJ9lqw3hhsNubRQz-32" value="+ roleId&lt;br&gt;&lt;div&gt;+ name&lt;/div&gt;" style="align=left;strokeColor=none;fillColor=none;spacingLeft=4;fontSize=12;verticalAlign=top;resizable=0;rotatable=0;part=1;html=1;" parent="bmDTBJ9lqw3hhsNubRQz-31" vertex="1">
          <mxGeometry y="50" width="160" height="40" as="geometry" />
        </mxCell>
        <mxCell id="bmDTBJ9lqw3hhsNubRQz-34" style="edgeStyle=orthogonalEdgeStyle;rounded=0;orthogonalLoop=1;jettySize=auto;html=1;exitX=1;exitY=0.25;exitDx=0;exitDy=0;entryX=0;entryY=0.5;entryDx=0;entryDy=0;strokeWidth=2;endArrow=ERoneToMany;endFill=0;" parent="1" source="bmDTBJ9lqw3hhsNubRQz-15" target="bmDTBJ9lqw3hhsNubRQz-28" edge="1">
          <mxGeometry relative="1" as="geometry" />
        </mxCell>
        <mxCell id="0_7YcfUC5gM77J7ln_g4-1" value="Token" style="swimlane;childLayout=stackLayout;horizontal=1;startSize=50;horizontalStack=0;rounded=1;fontSize=14;fontStyle=0;strokeWidth=2;resizeParent=0;resizeLast=1;shadow=0;dashed=0;align=center;arcSize=4;whiteSpace=wrap;html=1;" parent="1" vertex="1">
          <mxGeometry x="510" y="80" width="160" height="150" as="geometry" />
        </mxCell>
        <mxCell id="0_7YcfUC5gM77J7ln_g4-2" value="&lt;div&gt;+ tokenId&lt;/div&gt;&lt;div&gt;+ token&lt;/div&gt;&lt;div&gt;+ createdAt&lt;/div&gt;&lt;div&gt;+ expiresAt&lt;/div&gt;&lt;div&gt;+ validatedAt&lt;br&gt;&lt;/div&gt;" style="align=left;strokeColor=none;fillColor=none;spacingLeft=4;fontSize=12;verticalAlign=top;resizable=0;rotatable=0;part=1;html=1;" parent="0_7YcfUC5gM77J7ln_g4-1" vertex="1">
          <mxGeometry y="50" width="160" height="100" as="geometry" />
        </mxCell>
        <mxCell id="0_7YcfUC5gM77J7ln_g4-6" value="ConfigFileHistory" style="swimlane;childLayout=stackLayout;horizontal=1;startSize=50;horizontalStack=0;rounded=1;fontSize=14;fontStyle=0;strokeWidth=2;resizeParent=0;resizeLast=1;shadow=0;dashed=0;align=center;arcSize=4;whiteSpace=wrap;html=1;" parent="1" vertex="1">
          <mxGeometry x="150" y="140" width="160" height="150" as="geometry" />
        </mxCell>
        <mxCell id="0_7YcfUC5gM77J7ln_g4-7" value="+ configId&lt;br&gt;+ userId&lt;br&gt;&lt;div&gt;+ favorited&lt;/div&gt;&lt;div&gt;+ downloaded&lt;/div&gt;&lt;div&gt;+ favoritedDate&lt;/div&gt;&lt;div&gt;+ downloadedDate&lt;br&gt;&lt;/div&gt;" style="align=left;strokeColor=none;fillColor=none;spacingLeft=4;fontSize=12;verticalAlign=top;resizable=0;rotatable=0;part=1;html=1;" parent="0_7YcfUC5gM77J7ln_g4-6" vertex="1">
          <mxGeometry y="50" width="160" height="100" as="geometry" />
        </mxCell>
      </root>
    </mxGraphModel>
  </diagram>
</mxfile>
